<svg xmlns="http://www.w3.org/2000/svg" style="display: none;">
  <!-- 专为媒体图标 -->
  <symbol id="icon-media" viewBox="0 0 24 24">
    <path fill="currentColor" d="M21 3H3c-1.1 0-2 .9-2 2v14c0 1.1.9 2 2 2h18c1.1 0 2-.9 2-2V5c0-1.1-.9-2-2-2zm0 16H3V5h18v14zM4 6h9v7H4z"/>
    <circle fill="currentColor" cx="17" cy="8" r="1.5"/>
    <circle fill="currentColor" cx="17" cy="12" r="1.5"/>
    <circle fill="currentColor" cx="17" cy="16" r="1.5"/>
  </symbol>
  
  <!-- 开箱即用图标 -->
  <symbol id="icon-box" viewBox="0 0 24 24">
    <path fill="currentColor" d="M12 2l3 3h4v14c0 1.1-.9 2-2 2H7c-1.1 0-2-.9-2-2V5h4l3-3zm0 2.83L10.83 6H8v13h8V6h-2.83L12 4.83z"/>
    <path fill="currentColor" d="M12 8l-4 4h3v4h2v-4h3l-4-4z"/>
  </symbol>
  
  <!-- 私有部署图标 -->
  <symbol id="icon-security" viewBox="0 0 24 24">
    <path fill="currentColor" d="M12 1L3 5v6c0 5.55 3.84 10.74 9 12 5.16-1.26 9-6.45 9-12V5l-9-4zm0 10.99h7c-.53 4.12-3.28 7.79-7 8.94V12H5V6.3l7-3.11v8.8z"/>
    <path fill="currentColor" d="M12 7L9 10l1.41 1.41L12 9.83l3.59 3.58L17 12l-5-5z"/>
  </symbol>
  
  <!-- 流程自动化图标 -->
  <symbol id="icon-automation" viewBox="0 0 24 24">
    <path fill="currentColor" d="M12 2C6.48 2 2 6.48 2 12s4.48 10 10 10 10-4.48 10-10S17.52 2 12 2zm-2 15l-5-5 1.41-1.41L10 14.17l7.59-7.59L19 8l-9 9z"/>
    <path fill="currentColor" d="M9 12l2 2 4-4"/>
  </symbol>
  
  <!-- 播放按钮图标 -->
  <symbol id="icon-play" viewBox="0 0 24 24">
    <path fill="currentColor" d="M8 5v14l11-7z"/>
  </symbol>
  
  <!-- 箭头向下图标 -->
  <symbol id="icon-arrow-down" viewBox="0 0 24 24">
    <path fill="currentColor" d="M7.41 8.59L12 13.17l4.59-4.58L18 10l-6 6-6-6 1.41-1.41z"/>
  </symbol>
  
  <!-- 内容生产图标 -->
  <symbol id="icon-content-production" viewBox="0 0 24 24">
    <path fill="currentColor" d="M19 3H5c-1.1 0-2 .9-2 2v14c0 1.1.9 2 2 2h14c1.1 0 2-.9 2-2V5c0-1.1-.9-2-2-2zm-5 14H7v-2h7v2zm3-4H7v-2h10v2zm0-4H7V7h10v2z"/>
    <circle fill="currentColor" cx="17" cy="17" r="2"/>
    <path fill="currentColor" d="M15 17l1.5-1.5L18 17l-1.5 1.5z"/>
  </symbol>
  
  <!-- 重复性工作图标 -->
  <symbol id="icon-repetitive-work" viewBox="0 0 24 24">
    <path fill="currentColor" d="M12 6v3l4-4-4-4v3c-4.42 0-8 3.58-8 8 0 1.57.46 3.03 1.24 4.26L6.7 14.8c-.45-.83-.7-1.79-.7-2.8 0-3.31 2.69-6 6-6z"/>
    <path fill="currentColor" d="M18.76 7.74L17.3 9.2c.44.84.7 1.79.7 2.8 0 3.31-2.69 6-6 6v-3l-4 4 4 4v-3c4.42 0 8-3.58 8-8 0-1.57-.46-3.03-1.24-4.26z"/>
  </symbol>
  
  <!-- AI困惑图标 -->
  <symbol id="icon-ai-confusion" viewBox="0 0 24 24">
    <path fill="currentColor" d="M12 2C6.48 2 2 6.48 2 12s4.48 10 10 10 10-4.48 10-10S17.52 2 12 2zm1 17h-2v-2h2v2zm2.07-7.75l-.9.92C13.45 12.9 13 13.5 13 15h-2v-.5c0-1.1.45-2.1 1.17-2.83l1.24-1.26c.37-.36.59-.86.59-1.41 0-1.1-.9-2-2-2s-2 .9-2 2H8c0-2.21 1.79-4 4-4s4 1.79 4 4c0 .88-.36 1.68-.93 2.25z"/>
  </symbol>
  
  <!-- AI引擎管理图标 -->
  <symbol id="icon-ai-engine" viewBox="0 0 24 24">
    <path fill="currentColor" d="M12 2l3.09 6.26L22 9.27l-5 4.87 1.18 6.88L12 17.77l-6.18 3.25L7 14.14 2 9.27l6.91-1.01L12 2z"/>
    <circle fill="currentColor" cx="12" cy="12" r="3"/>
    <path fill="currentColor" d="M12 8v8M8 12h8"/>
  </symbol>
  
  <!-- 知识库图标 -->
  <symbol id="icon-knowledge-base" viewBox="0 0 24 24">
    <path fill="currentColor" d="M19 3H5c-1.1 0-2 .9-2 2v14c0 1.1.9 2 2 2h14c1.1 0 2-.9 2-2V5c0-1.1-.9-2-2-2zm-5 14H7v-2h7v2zm3-4H7v-2h10v2zm0-4H7V7h10v2z"/>
    <path fill="currentColor" d="M21 5v14c0 1.1-.9 2-2 2H5c-1.1 0-2-.9-2-2V5c0-1.1.9-2 2-2h14c1.1 0 2 .9 2 2z"/>
  </symbol>
  
  <!-- 成本管控图标 -->
  <symbol id="icon-cost-control" viewBox="0 0 24 24">
    <path fill="currentColor" d="M11.8 10.9c-2.27-.59-3-1.2-3-2.15 0-1.09 1.01-1.85 2.7-1.85 1.78 0 2.44.85 2.5 2.1h2.21c-.07-1.72-1.12-3.3-3.21-3.81V3h-3v2.16c-1.94.42-3.5 1.68-3.5 3.61 0 2.31 1.91 3.46 4.7 4.13 2.5.6 3 1.48 3 2.41 0 .69-.49 1.79-2.7 1.79-2.06 0-2.87-.92-2.98-2.1h-2.2c.12 2.19 1.76 3.42 3.68 3.83V21h3v-2.15c1.95-.37 3.5-1.5 3.5-3.55 0-2.84-2.43-3.81-4.7-4.4z"/>
  </symbol>
  
  <!-- 数据安全图标 -->
  <symbol id="icon-data-security" viewBox="0 0 24 24">
    <path fill="currentColor" d="M18 8h-1V6c0-2.76-2.24-5-5-5S7 3.24 7 6v2H6c-1.1 0-2 .9-2 2v10c0 1.1.9 2 2 2h12c1.1 0 2-.9 2-2V10c0-1.1-.9-2-2-2zm-6 9c-1.1 0-2-.9-2-2s.9-2 2-2 2 .9 2 2-.9 2-2 2zm3.1-9H8.9V6c0-1.71 1.39-3.1 3.1-3.1 1.71 0 3.1 1.39 3.1 3.1v2z"/>
  </symbol>
  
  <!-- 内容合规图标 -->
  <symbol id="icon-content-compliance" viewBox="0 0 24 24">
    <path fill="currentColor" d="M9 12l2 2 4-4m6 2a9 9 0 11-18 0 9 9 0 0118 0z"/>
    <path fill="currentColor" d="M12 2C6.48 2 2 6.48 2 12s4.48 10 10 10 10-4.48 10-10S17.52 2 12 2zm-2 15l-5-5 1.41-1.41L10 14.17l7.59-7.59L19 8l-9 9z"/>
  </symbol>
  
  <!-- 稳定可靠图标 -->
  <symbol id="icon-reliability" viewBox="0 0 24 24">
    <path fill="currentColor" d="M12 1L3 5v6c0 5.55 3.84 10.74 9 12 5.16-1.26 9-6.45 9-12V5l-9-4zm0 10.99h7c-.53 4.12-3.28 7.79-7 8.94V12H5V6.3l7-3.11v8.8z"/>
    <circle fill="currentColor" cx="12" cy="8" r="2"/>
    <path fill="currentColor" d="M12 10v6"/>
  </symbol>
  
  <!-- 选题策划官图标 -->
  <symbol id="icon-topic-planner" viewBox="0 0 24 24">
    <path fill="currentColor" d="M9 11H7v6h2v-6zm4 0h-2v6h2v-6zm4 0h-2v6h2v-6zm2.5-9H19v2h-1.5v17h-11V4H5V2h1.5C7.33 2 8 2.67 8 3.5S7.33 5 6.5 5H8v14h8V5h1.5c-.83 0-1.5-.67-1.5-1.5S15.67 2 16.5 2z"/>
    <circle fill="currentColor" cx="12" cy="8" r="2"/>
  </symbol>
  
  <!-- 新闻助理官图标 -->
  <symbol id="icon-news-assistant" viewBox="0 0 24 24">
    <path fill="currentColor" d="M12 2C6.48 2 2 6.48 2 12s4.48 10 10 10 10-4.48 10-10S17.52 2 12 2zm-2 15l-5-5 1.41-1.41L10 14.17l7.59-7.59L19 8l-9 9z"/>
    <path fill="currentColor" d="M19 3H5c-1.1 0-2 .9-2 2v14c0 1.1.9 2 2 2h14c1.1 0 2-.9 2-2V5c0-1.1-.9-2-2-2zm-5 14H7v-2h7v2zm3-4H7v-2h10v2zm0-4H7V7h10v2z"/>
  </symbol>
  
  <!-- 稿件精编官图标 -->
  <symbol id="icon-content-editor" viewBox="0 0 24 24">
    <path fill="currentColor" d="M3 17.25V21h3.75L17.81 9.94l-3.75-3.75L3 17.25zM20.71 7.04c.39-.39.39-1.02 0-1.41l-2.34-2.34c-.39-.39-1.02-.39-1.41 0l-1.83 1.83 3.75 3.75 1.83-1.83z"/>
    <path fill="currentColor" d="M19 3H5c-1.1 0-2 .9-2 2v14c0 1.1.9 2 2 2h14c1.1 0 2-.9 2-2V5c0-1.1-.9-2-2-2zm-5 14H7v-2h7v2zm3-4H7v-2h10v2zm0-4H7V7h10v2z"/>
  </symbol>
  
  <!-- 视频快创官图标 -->
  <symbol id="icon-video-creator" viewBox="0 0 24 24">
    <path fill="currentColor" d="M17 10.5V7c0-.55-.45-1-1-1H4c-.55 0-1 .45-1 1v10c0 .55.45 1 1 1h12c.55 0 1-.45 1-1v-3.5l4 4v-11l-4 4zM14 13h-3v3H9v-3H6v-2h3V8h2v3h3v2z"/>
    <circle fill="currentColor" cx="8" cy="8" r="2"/>
  </symbol>
  
  <!-- 全网分发官图标 -->
  <symbol id="icon-distribution-manager" viewBox="0 0 24 24">
    <path fill="currentColor" d="M12 2l3.09 6.26L22 9.27l-5 4.87 1.18 6.88L12 17.77l-6.18 3.25L7 14.14 2 9.27l6.91-1.01L12 2z"/>
    <path fill="currentColor" d="M19 3H5c-1.1 0-2 .9-2 2v14c0 1.1.9 2 2 2h14c1.1 0 2-.9 2-2V5c0-1.1-.9-2-2-2zm-7 14l-5-5 1.41-1.41L12 14.17l7.59-7.59L17 8l-5 6z"/>
  </symbol>
  
  <!-- 舆情分析官图标 -->
  <symbol id="icon-sentiment-analyst" viewBox="0 0 24 24">
    <path fill="currentColor" d="M9 11H7v6h2v-6zm4 0h-2v6h2v-6zm4 0h-2v6h2v-6zm2.5-9H19v2h-1.5v17h-11V4H5V2h1.5C7.33 2 8 2.67 8 3.5S7.33 5 6.5 5H8v14h8V5h1.5c-.83 0-1.5-.67-1.5-1.5S15.67 2 16.5 2z"/>
    <path fill="currentColor" d="M12 2C6.48 2 2 6.48 2 12s4.48 10 10 10 10-4.48 10-10S17.52 2 12 2zm3.5 6L12 10.5 8.5 8 12 5.5 15.5 8zM7.5 12c0-.83.67-1.5 1.5-1.5s1.5.67 1.5 1.5-.67 1.5-1.5 1.5-1.5-.67-1.5-1.5zm9 0c0-.83.67-1.5 1.5-1.5s1.5.67 1.5 1.5-.67 1.5-1.5 1.5-1.5-.67-1.5-1.5z"/>
  </symbol>
  
  <!-- 检查图标 -->
  <symbol id="icon-check" viewBox="0 0 24 24">
    <path fill="currentColor" d="M9 16.17L4.83 12l-1.42 1.41L9 19 21 7l-1.41-1.41z"/>
  </symbol>
  
  <!-- 星星图标 -->
  <symbol id="icon-star" viewBox="0 0 24 24">
    <path fill="currentColor" d="M12 2l3.09 6.26L22 9.27l-5 4.87 1.18 6.88L12 17.77l-6.18 3.25L7 14.14 2 9.27l6.91-1.01L12 2z"/>
  </symbol>
  
  <!-- 皇冠图标 -->
  <symbol id="icon-crown" viewBox="0 0 24 24">
    <path fill="currentColor" d="M5 16L3 5l5.5 5L12 4l3.5 6L21 5l-2 11H5zm2.7-2h8.6l.9-5.4-2.1 1.8L12 8l-3.1 2.4-2.1-1.8L7.7 14z"/>
  </symbol>
  
  <!-- 电话图标 -->
  <symbol id="icon-phone" viewBox="0 0 24 24">
    <path fill="currentColor" d="M6.62 10.79c1.44 2.83 3.76 5.14 6.59 6.59l2.2-2.2c.27-.27.67-.36 1.02-.24 1.12.37 2.33.57 3.57.57.55 0 1 .45 1 1V20c0 .55-.45 1-1 1-9.39 0-17-7.61-17-17 0-.55.45-1 1-1h3.5c.55 0 1 .45 1 1 0 1.25.2 2.45.57 3.57.11.35.03.74-.25 1.02l-2.2 2.2z"/>
  </symbol>
  
  <!-- 邮件图标 -->
  <symbol id="icon-email" viewBox="0 0 24 24">
    <path fill="currentColor" d="M20 4H4c-1.1 0-1.99.9-1.99 2L2 18c0 1.1.9 2 2 2h16c1.1 0 2-.9 2-2V6c0-1.1-.9-2-2-2zm0 4l-8 5-8-5V6l8 5 8-5v2z"/>
  </symbol>
  
  <!-- 日历图标 -->
  <symbol id="icon-calendar" viewBox="0 0 24 24">
    <path fill="currentColor" d="M19 3h-1V1h-2v2H8V1H6v2H5c-1.11 0-1.99.9-1.99 2L3 19c0 1.1.89 2 2 2h14c1.1 0 2-.9 2-2V5c0-1.1-.9-2-2-2zm0 16H5V8h14v11zM7 10h5v5H7z"/>
  </symbol>
</svg>